<svg width="25" height="25" viewBox="0 0 25 25" fill="none" xmlns="http://www.w3.org/2000/svg">
<g id="icons8-whatsapp 1" opacity="0.8">
<path id="Vector" d="M12.5 2C6.70653 2 2 6.70653 2 12.5C2 14.3622 2.51071 16.1001 3.36243 17.6171L2.01694 22.4204C1.99545 22.4973 1.99447 22.5784 2.01412 22.6558C2.03377 22.7332 2.07336 22.804 2.12893 22.8613C2.1845 22.9186 2.25412 22.9603 2.33084 22.9823C2.40757 23.0043 2.48871 23.0058 2.56619 22.9866L7.57456 21.7455C9.04624 22.5311 10.7162 23 12.5 23C18.2935 23 23 18.2935 23 12.5C23 6.70653 18.2935 2 12.5 2ZM12.5 2.91304C17.8 2.91304 22.087 7.2 22.087 12.5C22.087 17.8 17.8 22.087 12.5 22.087C10.8008 22.087 9.20945 21.644 7.826 20.8699C7.72482 20.8133 7.60592 20.7974 7.49342 20.8253L3.10742 21.9122L4.2835 17.7161C4.30033 17.6568 4.30498 17.5947 4.29716 17.5336C4.28935 17.4724 4.26923 17.4135 4.23803 17.3604C3.39727 15.9347 2.91304 14.2759 2.91304 12.5C2.91304 7.2 7.2 2.91304 12.5 2.91304ZM8.68466 7.02174C8.39201 7.02174 7.97406 7.13062 7.63073 7.50055C7.42451 7.72275 6.56522 8.55999 6.56522 10.0319C6.56522 11.5665 7.62955 12.8907 7.75824 13.0608H7.75913V13.0617C7.74692 13.0457 7.92247 13.2999 8.1568 13.6047C8.39113 13.9096 8.71882 14.3099 9.13048 14.7434C9.9538 15.6102 11.1114 16.6121 12.5481 17.2248C13.2098 17.5066 13.7318 17.6767 14.1273 17.8008C14.8601 18.031 15.5277 17.996 16.0291 17.9221C16.4045 17.8668 16.8173 17.6866 17.2257 17.4281C17.6342 17.1696 18.0345 16.8482 18.211 16.3599C18.3374 16.0099 18.4017 15.6863 18.425 15.4201C18.4366 15.287 18.4381 15.1696 18.4294 15.0608C18.4208 14.952 18.43 14.8687 18.3287 14.7024C18.1161 14.3534 17.8754 14.3443 17.6243 14.22C17.4847 14.1509 17.0874 13.9569 16.6889 13.767C16.2909 13.5774 15.9462 13.4094 15.734 13.3337C15.5999 13.2854 15.4361 13.216 15.1999 13.2427C14.9637 13.2695 14.7303 13.4399 14.5945 13.6413C14.4657 13.8322 13.9474 14.444 13.7893 14.6239C13.7872 14.6226 13.8009 14.6289 13.7385 14.598C13.543 14.5013 13.304 14.4191 12.9503 14.2325C12.5966 14.0459 12.1541 13.7703 11.6699 13.3435V13.3426C10.9492 12.7082 10.4444 11.9116 10.2852 11.644C10.2959 11.6313 10.2839 11.6467 10.3066 11.6244L10.3074 11.6235C10.4702 11.4632 10.6144 11.2717 10.7363 11.1313C10.9091 10.9322 10.9854 10.7567 11.068 10.5928C11.2327 10.266 11.141 9.90638 11.0457 9.71718V9.71629C11.0523 9.72938 10.9942 9.60116 10.9316 9.45325C10.8688 9.30492 10.7888 9.11263 10.7033 8.90757C10.5324 8.49745 10.3416 8.03746 10.2281 7.76805V7.76715C10.0944 7.44981 9.91353 7.2212 9.67706 7.1109C9.44058 7.00061 9.23166 7.03197 9.22321 7.03155H9.22232C9.05357 7.02376 8.86839 7.02174 8.68466 7.02174ZM8.68466 7.93478C8.86066 7.93478 9.03418 7.93693 9.17952 7.9437C9.32903 7.95115 9.31973 7.95176 9.29097 7.93835C9.26176 7.92473 9.3014 7.9203 9.38638 8.12203C9.4975 8.38583 9.68927 8.84748 9.86073 9.25887C9.94646 9.46457 10.0267 9.65761 10.0908 9.80902C10.1549 9.96043 10.1896 10.045 10.2299 10.1256V10.1264L10.2308 10.1273C10.2703 10.2053 10.2668 10.1554 10.2531 10.1826C10.1567 10.3738 10.1436 10.4208 10.0462 10.533C9.89782 10.704 9.74647 10.8946 9.66636 10.9735C9.59627 11.0424 9.4698 11.1496 9.39084 11.3596C9.31175 11.5699 9.34866 11.8584 9.47554 12.0738C9.64447 12.3606 10.2011 13.2666 11.0662 14.0283C11.611 14.5085 12.1186 14.8264 12.5241 15.0403C12.9295 15.2542 13.2598 15.3791 13.3337 15.4157C13.5092 15.5025 13.701 15.57 13.924 15.5432C14.147 15.5164 14.3392 15.3811 14.4616 15.2427L14.4625 15.2418C14.6254 15.0571 15.1094 14.5045 15.3417 14.1638C15.3515 14.1673 15.3483 14.1646 15.4255 14.1923V14.1932H15.4264C15.4616 14.2058 15.903 14.4034 16.2966 14.5909C16.6902 14.7785 17.0897 14.9734 17.2195 15.0376C17.4068 15.1303 17.4953 15.1907 17.5182 15.191C17.5197 15.2311 17.5213 15.2747 17.5155 15.3408C17.4995 15.5241 17.4505 15.7779 17.3523 16.0496C17.3042 16.1826 17.0538 16.457 16.738 16.6568C16.4222 16.8567 16.0377 16.9979 15.8954 17.0189C15.4673 17.0819 14.9591 17.1049 14.401 16.9297C14.014 16.8082 13.5314 16.651 12.9066 16.3849C11.6394 15.8445 10.5623 14.9248 9.79297 14.1148C9.40829 13.7097 9.10008 13.3327 8.88082 13.0475C8.66196 12.7628 8.56639 12.6146 8.48671 12.5098L8.48582 12.5089C8.34438 12.3219 7.47826 11.1171 7.47826 10.0319C7.47826 8.88343 8.01171 8.43305 8.30036 8.12203C8.45189 7.95875 8.61756 7.93478 8.68466 7.93478Z" fill="white"/>
</g>
</svg>
